<mxfile host="app.diagrams.net" modified="2023-12-01T13:03:22.968Z" agent="Mozilla/5.0 (Windows NT 10.0; Win64; x64) AppleWebKit/537.36 (KHTML, like Gecko) Chrome/119.0.0.0 Safari/537.36" version="22.1.5" etag="8c7M81nAcSiGeB9cxCI9" type="github">
  <diagram name="Page-1" id="hX3njrNeLMJxXCk_QEPV">
    <mxGraphModel>
      <root>
        <mxCell id="0" />
        <mxCell id="1" parent="0" />
      </root>
    </mxGraphModel>
  </diagram>
</mxfile>
